<svg class="gdiagram" viewBox="-8.00 -51.04 504.00 427.04" width="226.80" height="192.17" xmlns="http://www.w3.org/2000/svg" role="img" aria-label="One connector and its four edges, drawn where the board runs them: one to its partner alongside it, one up into each of the three blocks. Hover a vertex to highlight its neighbors."><g stroke="currentColor" fill="none" stroke-width="3.00" stroke-linejoin="round"><path class="gedge" data-u="A.P30" data-w="X07a" opacity="0.7" d="M 64.00 8.00 L 64.00 16.00 L 0.00 16.00 L 0.00 272.00 L 136.00 272.00 L 136.00 336.00"/><path class="gedge" data-u="B.P21" data-w="X07a" opacity="0.7" d="M 296.00 88.00 L 296.00 96.00 L 232.00 96.00 L 232.00 208.00 L 144.00 208.00 L 144.00 336.00"/><path class="gedge" data-u="C.P11" data-w="X07a" opacity="0.7" d="M 432.00 88.00 L 432.00 96.00 L 368.00 96.00 L 368.00 160.00 L 152.00 160.00 L 152.00 336.00"/><path class="gedge" data-u="X07a" data-w="X07b" opacity="0.7" d="M 144.00 352.00 L 144.00 368.00 L 208.00 368.00 L 208.00 352.00"/></g><g fill="currentColor" stroke="none"><rect class="gnode" data-v="X07a" x="136.00" y="336.00" width="16.00" height="16.00"/><rect class="gnode" data-v="A.P30" x="64.00" y="-8.00" width="16.00" height="16.00"/><rect class="gnode" data-v="B.P21" x="296.00" y="72.00" width="16.00" height="16.00"/><rect class="gnode" data-v="C.P11" x="432.00" y="72.00" width="16.00" height="16.00"/><rect class="gnode" data-v="X07b" x="200.00" y="336.00" width="16.00" height="16.00"/></g><g fill="currentColor" fill-opacity="0.6" font-family="IBM Plex Mono, ui-monospace, monospace"><text class="glabel" data-group="X07a" x="124.00" y="355.52" font-size="32.00" text-anchor="end">X07a</text><text class="glabel" data-group="A.P30" x="72.00" y="-20.00" font-size="32.00" text-anchor="middle">A.P30</text><text class="glabel" data-group="B.P21" x="304.00" y="60.00" font-size="32.00" text-anchor="middle">B.P21</text><text class="glabel" data-group="C.P11" x="440.00" y="60.00" font-size="32.00" text-anchor="middle">C.P11</text><text class="glabel" data-group="X07b" x="228.00" y="355.52" font-size="32.00" text-anchor="start">X07b</text></g><g class="ghit-layer"><circle class="ghit" data-v="X07a" cx="144.00" cy="344.00" r="20.00"/><circle class="ghit" data-v="A.P30" cx="72.00" cy="0.00" r="20.00"/><circle class="ghit" data-v="B.P21" cx="304.00" cy="80.00" r="20.00"/><circle class="ghit" data-v="C.P11" cx="440.00" cy="80.00" r="20.00"/><circle class="ghit" data-v="X07b" cx="208.00" cy="344.00" r="20.00"/></g></svg>